<svg width="311" height="264" viewBox="0 0 311 264" fill="none" xmlns="http://www.w3.org/2000/svg">
<path d="M123.381 214.26C123.042 226.003 123.473 251.335 127.91 258.715C128.289 259.344 121.303 261.691 114.406 261.818" stroke="black" stroke-width="3.43731" stroke-linecap="round"/>
<path d="M179.737 214.26C180.076 226.003 179.645 251.335 175.208 258.715C174.83 259.344 181.815 261.691 188.712 261.818" stroke="black" stroke-width="3.43731" stroke-linecap="round"/>
<path d="M68.8933 131.057C61.5381 143.676 21.1239 145.324 13.2056 96.7032" stroke="black" stroke-width="3.43731" stroke-linecap="round"/>
<circle cx="154.389" cy="114.577" r="108.848" fill="#F36868"/>
<path d="M118.868 109.994H138.346" stroke="black" stroke-width="3.43731" stroke-linecap="round"/>
<path d="M138.347 109.994C135.482 122.597 121.733 122.597 118.869 109.994" stroke="black" stroke-width="3.43731" stroke-linecap="round"/>
<circle cx="86.2148" cy="91.0887" r="6.30173" fill="black"/>
<circle cx="176.73" cy="91.0887" r="6.30173" fill="black"/>
<path d="M245.476 137.492C247.386 157.734 246.049 174.73 240.32 198.218" stroke="black" stroke-width="3.43731" stroke-linecap="round"/>
<path d="M143.629 12.9753C162.116 32.098 209.958 71.0376 234.019 47.5495" stroke="black" stroke-width="3.43731" stroke-linecap="round"/>
<path d="M159.032 13.8175C173.712 25.2742 205.635 44.5776 215.885 30.1371" stroke="black" stroke-width="3.43731" stroke-linecap="round"/>
<path d="M133.144 13.787C146.224 35.029 198.5 106.557 245.476 61.2987" stroke="black" stroke-width="3.43731" stroke-linecap="round"/>
<path d="M107.983 21.535C100.802 33.3591 86.8089 60.7258 69.926 53.121" stroke="black" stroke-width="3.43731" stroke-linecap="round"/>
<path d="M125.462 14.0062C115.763 39.4009 90.1696 85.0357 65.3862 64.418" stroke="black" stroke-width="3.43731" stroke-linecap="round"/>
<path d="M260.677 56.0447L296.356 26.3527" stroke="black" stroke-width="3.43731" stroke-linecap="round" stroke-linejoin="round"/>
<path d="M263.986 63.8956L308.547 50.8982" stroke="black" stroke-width="3.43731" stroke-linecap="round" stroke-linejoin="round"/>
<path d="M266.606 72.577L306.088 79.238" stroke="black" stroke-width="3.43731" stroke-linecap="round" stroke-linejoin="round"/>
<path d="M268.613 56.5063L293.247 43.33" stroke="black" stroke-width="3.43731" stroke-linecap="round" stroke-linejoin="round"/>
<path d="M273.341 67.3845L301.268 68.1198" stroke="black" stroke-width="3.43731" stroke-linecap="round" stroke-linejoin="round"/>
<path d="M241.466 42.5674C243.566 40.2758 248.226 37.526 250.059 44.8589C252.351 54.025 254.642 57.4623 258.079 59.7539C261.517 62.0454 258.652 76.3675 263.235 78.6591C267.818 80.9506 270.683 89.5439 264.954 90.6896" stroke="black" stroke-width="3.43731" stroke-linecap="round" stroke-linejoin="round"/>
<path d="M49.8705 56.0447L14.1914 26.3527" stroke="black" stroke-width="3.43731" stroke-linecap="round" stroke-linejoin="round"/>
<path d="M46.5609 63.8956L2 50.8982" stroke="black" stroke-width="3.43731" stroke-linecap="round" stroke-linejoin="round"/>
<path d="M43.941 72.577L4.45947 79.238" stroke="black" stroke-width="3.43731" stroke-linecap="round" stroke-linejoin="round"/>
<path d="M41.9343 56.5063L17.3003 43.33" stroke="black" stroke-width="3.43731" stroke-linecap="round" stroke-linejoin="round"/>
<path d="M37.2067 67.3845L9.27979 68.1198" stroke="black" stroke-width="3.43731" stroke-linecap="round" stroke-linejoin="round"/>
</svg>
