<svg width="534" height="325" viewBox="0 0 534 325" fill="none" xmlns="http://www.w3.org/2000/svg">
<path d="M66.3299 261.906C55.9102 261.906 46.3165 259.174 37.5488 253.71C28.8446 248.246 21.8558 239.955 16.5825 228.836C11.3726 217.718 8.76774 203.709 8.76774 186.808C8.76774 169.146 11.4997 154.787 16.9637 143.732C22.4912 132.677 29.607 124.577 38.3112 119.43C47.079 114.284 56.2914 111.711 65.9487 111.711C73.1916 111.711 79.545 112.982 85.009 115.523C90.4729 118.001 95.0474 121.336 98.7324 125.53C102.417 129.659 105.213 134.202 107.119 139.158H107.881V64.8225H160.488V260H108.263V235.984H107.119C105.086 240.94 102.163 245.387 98.3512 249.326C94.6027 253.202 90.0282 256.283 84.6278 258.57C79.2909 260.794 73.1916 261.906 66.3299 261.906ZM85.7714 221.498C90.6 221.498 94.7297 220.1 98.1606 217.305C101.655 214.446 104.323 210.443 106.166 205.297C108.072 200.087 109.025 193.924 109.025 186.808C109.025 179.566 108.072 173.371 106.166 168.225C104.323 163.015 101.655 159.044 98.1606 156.312C94.7297 153.516 90.6 152.119 85.7714 152.119C80.9428 152.119 76.813 153.516 73.3822 156.312C70.0149 159.044 67.41 163.015 65.5675 168.225C63.7885 173.371 62.899 179.566 62.899 186.808C62.899 194.051 63.7885 200.278 65.5675 205.488C67.41 210.634 70.0149 214.605 73.3822 217.4C76.813 220.132 80.9428 221.498 85.7714 221.498ZM256.838 262.668C240.954 262.668 227.358 259.523 216.049 253.234C204.739 246.88 196.067 238.049 190.031 226.74C183.995 215.367 180.978 202.184 180.978 187.19C180.978 172.196 183.995 159.044 190.031 147.735C196.067 136.362 204.739 127.531 216.049 121.241C227.358 114.888 240.954 111.711 256.838 111.711C272.721 111.711 286.318 114.888 297.627 121.241C308.936 127.531 317.608 136.362 323.644 147.735C329.68 159.044 332.698 172.196 332.698 187.19C332.698 202.184 329.68 215.367 323.644 226.74C317.608 238.049 308.936 246.88 297.627 253.234C286.318 259.523 272.721 262.668 256.838 262.668ZM257.219 223.785C261.666 223.785 265.51 222.292 268.75 219.306C271.991 216.32 274.5 212.063 276.279 206.536C278.058 201.008 278.948 194.433 278.948 186.808C278.948 179.121 278.058 172.545 276.279 167.081C274.5 161.554 271.991 157.297 268.75 154.311C265.51 151.324 261.666 149.831 257.219 149.831C252.517 149.831 248.483 151.324 245.116 154.311C241.748 157.297 239.175 161.554 237.396 167.081C235.617 172.545 234.728 179.121 234.728 186.808C234.728 194.433 235.617 201.008 237.396 206.536C239.175 212.063 241.748 216.32 245.116 219.306C248.483 222.292 252.517 223.785 257.219 223.785ZM441.341 113.617V151.737H344.896V113.617H441.341ZM363.575 78.5459H416.182V212.921C416.182 214.954 416.531 216.67 417.23 218.067C417.929 219.402 419.009 220.418 420.47 221.117C421.932 221.752 423.806 222.07 426.093 222.07C427.682 222.07 429.524 221.879 431.621 221.498C433.781 221.117 435.369 220.799 436.386 220.545L444.01 257.522C441.659 258.221 438.292 259.079 433.908 260.095C429.588 261.112 424.441 261.779 418.469 262.097C406.397 262.732 396.264 261.493 388.068 258.38C379.872 255.203 373.709 250.216 369.579 243.418C365.45 236.619 363.448 228.106 363.575 217.877V78.5459ZM491.399 263.05C484.029 263.05 477.707 260.477 472.434 255.33C467.224 250.12 464.651 243.799 464.714 236.365C464.651 229.122 467.224 222.928 472.434 217.781C477.707 212.635 484.029 210.062 491.399 210.062C498.387 210.062 504.55 212.635 509.887 217.781C515.287 222.928 518.019 229.122 518.083 236.365C518.019 241.321 516.717 245.832 514.176 249.898C511.698 253.901 508.458 257.109 504.455 259.523C500.452 261.874 496.1 263.05 491.399 263.05Z" fill="black"/>
<circle cx="254.899" cy="184.899" r="84.8992" fill="#F36868"/>
<path d="M262.555 165C259.174 168.804 250.129 174.129 241 165" stroke="black" stroke-width="7.09397" stroke-linecap="round"/>
<circle cx="213.222" cy="151.222" r="9.22216" fill="black"/>
<circle cx="291.222" cy="153.222" r="9.22216" fill="black"/>
</svg>
