<svg width="247" height="447" viewBox="0 0 247 447" fill="none" xmlns="http://www.w3.org/2000/svg">
<path d="M234.307 260.638C238.205 269.877 247.517 289.394 253.578 293.552C254.095 293.907 249.503 298.205 244.192 300.747" stroke="white" stroke-width="2.93391" stroke-linecap="round"/>
<circle cx="140.607" cy="183.586" r="23" stroke="white" stroke-width="3"/>
<path d="M165.786 219.884C174.443 234.925 179.428 248.595 183.303 268.864" stroke="white" stroke-width="2.93391" stroke-linecap="round"/>
<circle cx="223.057" cy="172.246" r="92.9071" transform="rotate(-24.5314 223.057 172.246)" fill="#8DDFC7"/>
<path d="M199.926 190.129C198.771 193.881 194.13 200.514 184.801 197.031" stroke="white" stroke-width="2.93391" stroke-linecap="round"/>
<circle cx="151.928" cy="184.333" r="5.37883" transform="rotate(-24.5314 151.928 184.333)" fill="white"/>
<circle cx="222.213" cy="152.255" r="5.37883" transform="rotate(-24.5314 222.213 152.255)" fill="white"/>
<circle cx="141.607" cy="124.586" r="23" stroke="white" stroke-width="3"/>
<circle cx="158.607" cy="103.586" r="15" stroke="white" stroke-width="3"/>
<circle cx="184.107" cy="84.0862" r="23.5" stroke="white" stroke-width="3"/>
<circle cx="133.107" cy="155.086" r="14.5" stroke="white" stroke-width="3"/>
<circle cx="222.107" cy="87.0862" r="19.5" stroke="white" stroke-width="3"/>
<path d="M123.259 348.405C131.915 363.446 81.5161 375.42 45.0161 358.42" stroke="white" stroke-width="2.93391" stroke-linecap="round"/>
<circle cx="180.53" cy="300.767" r="92.9071" transform="rotate(-24.5314 180.53 300.767)" fill="#F36868"/>
<path d="M137.573 229.157C136.063 222.982 133.755 215.19 121.063 211.044" stroke="white" stroke-width="2.93391" stroke-linecap="round"/>
<circle cx="108.334" cy="300.391" r="39.6078" transform="rotate(-24.5314 108.334 300.391)" stroke="white" stroke-width="2.93391"/>
<circle cx="195.523" cy="260.599" r="39.6078" transform="rotate(-24.5314 195.523 260.599)" stroke="white" stroke-width="2.93391"/>
<path d="M141.929 278.609C143.084 274.857 147.725 268.224 157.054 271.706" stroke="white" stroke-width="2.93391"/>
<path d="M170.821 303.048C169.667 306.8 165.026 313.433 155.697 309.951" stroke="white" stroke-width="2.93391" stroke-linecap="round"/>
<circle cx="115.46" cy="303.052" r="5.37883" transform="rotate(-24.5314 115.46 303.052)" fill="white"/>
<circle cx="185.745" cy="270.974" r="5.37883" transform="rotate(-24.5314 185.745 270.974)" fill="white"/>
<path d="M147.206 234.226C147.437 220.358 149.381 205.981 163.065 192.65" stroke="white" stroke-width="2.93391" stroke-linecap="round"/>
<path d="M142.036 225.088C141.858 219.223 140.77 205.95 137.842 199.777" stroke="white" stroke-width="2.93391" stroke-linecap="round"/>
</svg>
