<svg width="1512" height="1871" viewBox="0 0 1512 1871" fill="none" xmlns="http://www.w3.org/2000/svg">
<rect width="1512" height="1871" fill="#F5F5F5"/>
<circle cx="1252.5" cy="648.5" r="106.5" fill="#F36868"/>
<circle cx="139" cy="724" r="99" fill="#F36868"/>
<circle cx="1369.5" cy="435.5" r="106.5" fill="#8DDFC7"/>
<circle cx="200" cy="254" r="135" fill="#8DDFC7"/>
<circle cx="235.5" cy="964.5" r="99.5" fill="#8DDFC7"/>
<circle cx="796" cy="1004" r="69" fill="#8DDFC7"/>
<ellipse cx="1146" cy="398" rx="141" ry="144" fill="#F9DC75"/>
<ellipse cx="363" cy="794.5" rx="69" ry="70.5" fill="#F9DC75"/>
<ellipse cx="99.5" cy="99" rx="99.5" ry="99" transform="matrix(-1 0 0 1 1226 1370)" fill="#F36868"/>
<ellipse cx="100.5" cy="99.5" rx="100.5" ry="99.5" transform="matrix(-1 0 0 1 1130 1610)" fill="#8DDFC7"/>
<ellipse cx="69.5" cy="70.5" rx="69.5" ry="70.5" transform="matrix(-1 0 0 1 971 1469)" fill="#F9DC75"/>
<circle cx="615.5" cy="1026.5" r="41.5" fill="#F9DC75"/>
</svg>
